# xmcd
#
# Track frame offsets: 
#        150
#        19185
#        47630
#        65405
#        102680
#        124455
#        143042
#        171205
#        190600
#        206222
#
# Disc length: 3201 seconds
#
# Revision: 0
# Processed by: cddbd v1.5PL3 Copyright (c) Steve Scherf et al.
# Submitted via: ExactAudioCopy v0.95a4
#
DISCID=960c7f0a
DTITLE=Lester Chambers - Lester Chambers
DYEAR=1998
DGENRE=Blues
TTITLE0=you Give Me Love
TTITLE1=Bring It On Home To Me
TTITLE2=Clean Up Man
TTITLE3=Five Long Years
TTITLE4=I've Got Dreams To Remember
TTITLE5=Hot Nights
TTITLE6=Johnny's Jungle
TTITLE7=Evil Woman
TTITLE8=Rent Me
TTITLE9=Fried Neck Bones And Some Home Fries
EXTD=
EXTT0=
EXTT1=
EXTT2=
EXTT3=
EXTT4=
EXTT5=
EXTT6=
EXTT7=
EXTT8=
EXTT9=
PLAYORDER=
